<svg width="317" height="42" viewBox="0 0 317 42" fill="none" xmlns="http://www.w3.org/2000/svg">
<rect x="0.630859" y="1.31201" width="315.698" height="39.9123" rx="9.5" fill="#FEFEFE" stroke="#B9B9B9"/>
<path d="M21.4703 21.2681C21.4703 20.1815 21.7234 19.1543 22.1731 18.2414L19.0222 15.0905C17.8333 16.855 17.1392 18.9803 17.1392 21.2681C17.1392 23.8341 18.0124 26.196 19.4777 28.073L22.5649 24.9859C21.8724 23.9147 21.4703 22.6384 21.4703 21.2681Z" fill="#F0B501"/>
<path d="M28.3279 14.4105C29.6982 14.4105 30.9744 14.8126 32.0457 15.5051L35.0125 12.5383C33.1354 11.0729 30.7735 10.1997 28.2076 10.1997C24.3822 10.1997 21.0105 12.1403 19.0222 15.0905L22.1731 18.2414C23.2913 15.9721 25.627 14.4105 28.3279 14.4105Z" fill="#E43E2B"/>
<path d="M28.3279 28.1257C25.9109 28.1257 23.7862 26.8752 22.5649 24.9859L19.4777 28.073C21.5032 30.6679 24.6606 32.3365 28.2076 32.3365C30.4951 32.3365 32.6208 31.6424 34.3852 30.4535L31.3546 27.4229C30.4417 27.8726 29.4145 28.1257 28.3279 28.1257Z" fill="#2BA24C"/>
<path d="M38.9334 24.0112H34.6143C33.9648 25.4972 32.8043 26.7085 31.3546 27.4229L34.3852 30.4535C36.6051 28.9576 38.2534 26.6779 38.9334 24.0112Z" fill="#3B7DED"/>
<path d="M35.1855 21.2681C35.1855 22.2436 34.9815 23.1712 34.6143 24.0112H38.9334C39.1571 23.1339 39.276 22.215 39.276 21.2681C39.276 20.6955 39.2324 20.1329 39.1487 19.5838H34.9769C35.1128 20.1228 35.1855 20.687 35.1855 21.2681Z" fill="#3B7DED"/>
<path d="M34.9769 19.5838H27.967V24.0112H34.6143C34.9815 23.1712 35.1855 22.2436 35.1855 21.2681C35.1855 20.687 35.1128 20.1228 34.9769 19.5838Z" fill="#3B7DED"/>
<path d="M85.2123 27.4283C84.4229 27.4283 83.6869 27.2843 83.0043 26.9963C82.3323 26.7083 81.7456 26.303 81.2443 25.7803C80.7429 25.2576 80.3536 24.655 80.0763 23.9723C79.8096 23.279 79.6763 22.5376 79.6763 21.7483C79.6763 20.959 79.8096 20.223 80.0763 19.5403C80.3536 18.847 80.7376 18.2443 81.2283 17.7323C81.7296 17.2203 82.3163 16.8203 82.9883 16.5323C83.6603 16.2443 84.3856 16.1003 85.1643 16.1003C86.0069 16.1003 86.7589 16.2496 87.4203 16.5483C88.0923 16.847 88.6789 17.2576 89.1803 17.7803L88.3803 18.5803C87.9963 18.1536 87.5323 17.823 86.9883 17.5883C86.4443 17.343 85.8363 17.2203 85.1643 17.2203C84.5456 17.2203 83.9749 17.3323 83.4523 17.5563C82.9403 17.7803 82.4869 18.1003 82.0923 18.5163C81.7083 18.9216 81.4096 19.4016 81.1963 19.9563C80.9936 20.5003 80.8923 21.0976 80.8923 21.7483C80.8923 22.399 80.9989 23.0016 81.2123 23.5563C81.4256 24.111 81.7243 24.5963 82.1083 25.0123C82.4923 25.4176 82.9456 25.7323 83.4683 25.9563C83.9909 26.1803 84.5616 26.2923 85.1803 26.2923C85.8843 26.2923 86.5083 26.1696 87.0523 25.9243C87.6069 25.679 88.0763 25.343 88.4603 24.9163L89.2603 25.7323C88.7696 26.255 88.1829 26.671 87.5003 26.9803C86.8176 27.279 86.0549 27.4283 85.2123 27.4283ZM94.1531 27.4283C93.4278 27.4283 92.7665 27.2523 92.1691 26.9003C91.5825 26.5483 91.1131 26.0736 90.7611 25.4763C90.4198 24.879 90.2491 24.2123 90.2491 23.4763C90.2491 22.751 90.4198 22.095 90.7611 21.5083C91.1131 20.9216 91.5825 20.4576 92.1691 20.1163C92.7665 19.7643 93.4278 19.5883 94.1531 19.5883C94.8891 19.5883 95.5505 19.759 96.1371 20.1003C96.7238 20.4416 97.1878 20.911 97.5291 21.5083C97.8811 22.095 98.0571 22.751 98.0571 23.4763C98.0571 24.223 97.8811 24.895 97.5291 25.4923C97.1878 26.079 96.7238 26.5483 96.1371 26.9003C95.5505 27.2523 94.8891 27.4283 94.1531 27.4283ZM94.1531 26.3403C94.6865 26.3403 95.1558 26.2176 95.5611 25.9723C95.9771 25.727 96.3025 25.3856 96.5371 24.9483C96.7825 24.511 96.9051 24.0203 96.9051 23.4763C96.9051 22.9323 96.7825 22.4523 96.5371 22.0363C96.3025 21.6096 95.9771 21.2736 95.5611 21.0283C95.1558 20.783 94.6865 20.6603 94.1531 20.6603C93.6305 20.6603 93.1611 20.783 92.7451 21.0283C92.3291 21.2736 92.0038 21.6096 91.7691 22.0363C91.5345 22.4523 91.4171 22.9323 91.4171 23.4763C91.4171 24.031 91.5345 24.527 91.7691 24.9643C92.0038 25.391 92.3291 25.727 92.7451 25.9723C93.1611 26.2176 93.6305 26.3403 94.1531 26.3403ZM105.311 27.2683V22.8523C105.311 22.191 105.114 21.6576 104.719 21.2523C104.335 20.8363 103.823 20.6283 103.183 20.6283C102.746 20.6283 102.362 20.7243 102.031 20.9163C101.7 21.1083 101.439 21.3696 101.247 21.7003C101.055 22.031 100.959 22.4096 100.959 22.8363L100.447 22.5483C100.447 21.983 100.58 21.4763 100.847 21.0283C101.114 20.5803 101.471 20.2283 101.919 19.9723C102.378 19.7163 102.9 19.5883 103.487 19.5883C104.063 19.5883 104.575 19.727 105.023 20.0043C105.471 20.2816 105.818 20.655 106.063 21.1243C106.319 21.5936 106.447 22.1056 106.447 22.6603V27.2683H105.311ZM99.8389 27.2683V19.7483H100.959V27.2683H99.8389ZM109.616 27.2683V16.5803H110.736V27.2683H109.616ZM107.712 20.7563V19.7483H112.624V20.7563H107.712ZM114.167 27.2683V19.7483H115.303V27.2683H114.167ZM114.727 18.1163C114.514 18.1163 114.332 18.0416 114.183 17.8923C114.034 17.7323 113.959 17.5456 113.959 17.3323C113.959 17.1083 114.034 16.9216 114.183 16.7723C114.332 16.623 114.514 16.5483 114.727 16.5483C114.962 16.5483 115.148 16.623 115.287 16.7723C115.436 16.9216 115.511 17.1083 115.511 17.3323C115.511 17.5456 115.436 17.7323 115.287 17.8923C115.148 18.0416 114.962 18.1163 114.727 18.1163ZM123.045 27.2683V22.8523C123.045 22.191 122.848 21.6576 122.453 21.2523C122.069 20.8363 121.557 20.6283 120.917 20.6283C120.48 20.6283 120.096 20.7243 119.765 20.9163C119.435 21.1083 119.173 21.3696 118.981 21.7003C118.789 22.031 118.693 22.4096 118.693 22.8363L118.181 22.5483C118.181 21.983 118.315 21.4763 118.581 21.0283C118.848 20.5803 119.205 20.2283 119.653 19.9723C120.112 19.7163 120.635 19.5883 121.221 19.5883C121.797 19.5883 122.309 19.727 122.757 20.0043C123.205 20.2816 123.552 20.655 123.797 21.1243C124.053 21.5936 124.181 22.1056 124.181 22.6603V27.2683H123.045ZM117.573 27.2683V19.7483H118.693V27.2683H117.573ZM129.252 27.4283C128.644 27.4283 128.1 27.2896 127.62 27.0123C127.14 26.7243 126.762 26.335 126.484 25.8443C126.218 25.3536 126.084 24.7776 126.084 24.1163V19.7483H127.22V24.0683C127.22 24.527 127.3 24.927 127.46 25.2683C127.631 25.6096 127.871 25.8763 128.18 26.0683C128.49 26.2603 128.847 26.3563 129.252 26.3563C129.882 26.3563 130.378 26.1483 130.74 25.7323C131.114 25.3163 131.3 24.7616 131.3 24.0683V19.7483H132.42V24.1163C132.42 24.767 132.287 25.343 132.02 25.8443C131.754 26.3456 131.38 26.735 130.9 27.0123C130.42 27.2896 129.871 27.4283 129.252 27.4283ZM137.775 27.4283C137.06 27.4283 136.42 27.2576 135.855 26.9163C135.289 26.5643 134.841 26.095 134.511 25.5083C134.191 24.9216 134.031 24.2603 134.031 23.5243C134.031 22.7776 134.191 22.111 134.511 21.5243C134.841 20.927 135.289 20.4576 135.855 20.1163C136.42 19.7643 137.055 19.5883 137.759 19.5883C138.335 19.5883 138.847 19.7056 139.295 19.9403C139.753 20.1643 140.121 20.4843 140.399 20.9003C140.687 21.3056 140.863 21.7803 140.927 22.3243V24.6763C140.863 25.2203 140.687 25.7003 140.399 26.1163C140.121 26.5323 139.753 26.8576 139.295 27.0923C138.847 27.3163 138.34 27.4283 137.775 27.4283ZM137.951 26.3563C138.729 26.3563 139.353 26.095 139.823 25.5723C140.303 25.0496 140.543 24.3616 140.543 23.5083C140.543 22.943 140.431 22.447 140.207 22.0203C139.993 21.583 139.689 21.247 139.295 21.0123C138.911 20.767 138.457 20.6443 137.935 20.6443C137.401 20.6443 136.927 20.767 136.511 21.0123C136.105 21.2576 135.78 21.599 135.535 22.0363C135.3 22.463 135.183 22.9536 135.183 23.5083C135.183 24.063 135.3 24.5536 135.535 24.9803C135.78 25.407 136.111 25.743 136.527 25.9883C136.943 26.2336 137.417 26.3563 137.951 26.3563ZM140.479 27.2683V25.2523L140.703 23.3963L140.479 21.5883V19.7483H141.599V27.2683H140.479ZM143.87 27.2683V19.7483H144.99V27.2683H143.87ZM144.99 22.8843L144.526 22.6763C144.526 21.727 144.755 20.975 145.214 20.4203C145.683 19.8656 146.323 19.5883 147.134 19.5883C147.507 19.5883 147.849 19.6576 148.158 19.7963C148.467 19.9243 148.755 20.1323 149.022 20.4203L148.286 21.2043C148.105 21.0016 147.902 20.8576 147.678 20.7723C147.465 20.687 147.219 20.6443 146.942 20.6443C146.366 20.6443 145.897 20.8363 145.534 21.2203C145.171 21.5936 144.99 22.1483 144.99 22.8843ZM157.357 27.4283C156.621 27.4283 155.954 27.2576 155.357 26.9163C154.77 26.5643 154.301 26.0896 153.949 25.4923C153.607 24.895 153.437 24.2283 153.437 23.4923C153.437 22.7563 153.607 22.095 153.949 21.5083C154.301 20.911 154.77 20.4416 155.357 20.1003C155.954 19.759 156.621 19.5883 157.357 19.5883C157.922 19.5883 158.45 19.695 158.941 19.9083C159.431 20.1216 159.847 20.4203 160.189 20.8043L159.453 21.5563C159.197 21.2683 158.887 21.0496 158.525 20.9003C158.162 20.7403 157.773 20.6603 157.357 20.6603C156.823 20.6603 156.349 20.783 155.933 21.0283C155.517 21.2736 155.191 21.6096 154.957 22.0363C154.722 22.4523 154.605 22.9376 154.605 23.4923C154.605 24.0363 154.722 24.527 154.957 24.9643C155.191 25.391 155.517 25.727 155.933 25.9723C156.349 26.2176 156.823 26.3403 157.357 26.3403C157.783 26.3403 158.178 26.2656 158.541 26.1163C158.903 25.9563 159.213 25.7323 159.469 25.4443L160.221 26.1963C159.869 26.591 159.442 26.895 158.941 27.1083C158.45 27.3216 157.922 27.4283 157.357 27.4283ZM165.059 27.4283C164.334 27.4283 163.673 27.2523 163.075 26.9003C162.489 26.5483 162.019 26.0736 161.667 25.4763C161.326 24.879 161.155 24.2123 161.155 23.4763C161.155 22.751 161.326 22.095 161.667 21.5083C162.019 20.9216 162.489 20.4576 163.075 20.1163C163.673 19.7643 164.334 19.5883 165.059 19.5883C165.795 19.5883 166.457 19.759 167.043 20.1003C167.63 20.4416 168.094 20.911 168.435 21.5083C168.787 22.095 168.963 22.751 168.963 23.4763C168.963 24.223 168.787 24.895 168.435 25.4923C168.094 26.079 167.63 26.5483 167.043 26.9003C166.457 27.2523 165.795 27.4283 165.059 27.4283ZM165.059 26.3403C165.593 26.3403 166.062 26.2176 166.467 25.9723C166.883 25.727 167.209 25.3856 167.443 24.9483C167.689 24.511 167.811 24.0203 167.811 23.4763C167.811 22.9323 167.689 22.4523 167.443 22.0363C167.209 21.6096 166.883 21.2736 166.467 21.0283C166.062 20.783 165.593 20.6603 165.059 20.6603C164.537 20.6603 164.067 20.783 163.651 21.0283C163.235 21.2736 162.91 21.6096 162.675 22.0363C162.441 22.4523 162.323 22.9323 162.323 23.4763C162.323 24.031 162.441 24.527 162.675 24.9643C162.91 25.391 163.235 25.727 163.651 25.9723C164.067 26.2176 164.537 26.3403 165.059 26.3403ZM170.745 27.2683V19.7483H171.865V27.2683H170.745ZM175.913 27.2683V22.6603C175.913 22.0416 175.726 21.551 175.353 21.1883C174.98 20.815 174.51 20.6283 173.945 20.6283C173.561 20.6283 173.209 20.7136 172.889 20.8843C172.58 21.0443 172.329 21.2736 172.137 21.5723C171.956 21.871 171.865 22.2283 171.865 22.6443L171.353 22.4363C171.353 21.8603 171.481 21.359 171.737 20.9323C171.993 20.5056 172.334 20.175 172.761 19.9403C173.198 19.7056 173.689 19.5883 174.233 19.5883C174.766 19.5883 175.241 19.7056 175.657 19.9403C176.084 20.175 176.42 20.5056 176.665 20.9323C176.921 21.359 177.049 21.8656 177.049 22.4523V27.2683H175.913ZM181.097 27.2683V22.6603C181.097 22.0416 180.91 21.551 180.537 21.1883C180.164 20.815 179.689 20.6283 179.113 20.6283C178.74 20.6283 178.393 20.7136 178.073 20.8843C177.764 21.0443 177.513 21.2736 177.321 21.5723C177.14 21.871 177.049 22.2283 177.049 22.6443L176.377 22.4363C176.409 21.8603 176.558 21.359 176.825 20.9323C177.102 20.5056 177.46 20.175 177.897 19.9403C178.345 19.7056 178.836 19.5883 179.369 19.5883C179.902 19.5883 180.382 19.7056 180.809 19.9403C181.246 20.175 181.588 20.5056 181.833 20.9323C182.089 21.359 182.217 21.8656 182.217 22.4523V27.2683H181.097ZM190.865 30.5963C190.107 30.5963 189.43 30.4523 188.833 30.1643C188.246 29.887 187.771 29.4923 187.409 28.9803L188.145 28.2443C188.443 28.6496 188.822 28.9643 189.281 29.1883C189.739 29.4123 190.278 29.5243 190.897 29.5243C191.75 29.5243 192.427 29.295 192.929 28.8363C193.441 28.3776 193.697 27.7536 193.697 26.9643V25.0923L193.921 23.3803L193.697 21.6843V19.7483H194.817V26.9643C194.817 27.6896 194.651 28.3243 194.321 28.8683C193.99 29.4123 193.526 29.8336 192.929 30.1323C192.342 30.4416 191.654 30.5963 190.865 30.5963ZM190.945 27.1883C190.251 27.1883 189.627 27.023 189.073 26.6923C188.518 26.3616 188.081 25.9083 187.761 25.3323C187.441 24.7563 187.281 24.1056 187.281 23.3803C187.281 22.655 187.435 22.0096 187.745 21.4443C188.065 20.8683 188.502 20.415 189.057 20.0843C189.611 19.7536 190.235 19.5883 190.929 19.5883C191.515 19.5883 192.038 19.7003 192.497 19.9243C192.966 20.1483 193.339 20.4683 193.617 20.8843C193.905 21.2896 194.081 21.7696 194.145 22.3243V24.4523C194.081 24.9963 193.905 25.4763 193.617 25.8923C193.329 26.2976 192.955 26.6176 192.497 26.8523C192.038 27.0763 191.521 27.1883 190.945 27.1883ZM191.153 26.1163C191.675 26.1163 192.129 26.0043 192.513 25.7803C192.907 25.5563 193.211 25.2416 193.425 24.8363C193.649 24.4203 193.761 23.935 193.761 23.3803C193.761 22.8363 193.649 22.3616 193.425 21.9563C193.211 21.551 192.907 21.231 192.513 20.9963C192.118 20.7616 191.659 20.6443 191.137 20.6443C190.614 20.6443 190.145 20.7616 189.729 20.9963C189.323 21.231 189.003 21.551 188.769 21.9563C188.545 22.3616 188.433 22.8363 188.433 23.3803C188.433 23.9136 188.55 24.3883 188.785 24.8043C189.019 25.2203 189.339 25.5456 189.745 25.7803C190.15 26.0043 190.619 26.1163 191.153 26.1163ZM200.481 27.4283C199.756 27.4283 199.095 27.2523 198.497 26.9003C197.911 26.5483 197.441 26.0736 197.089 25.4763C196.748 24.879 196.577 24.2123 196.577 23.4763C196.577 22.751 196.748 22.095 197.089 21.5083C197.441 20.9216 197.911 20.4576 198.497 20.1163C199.095 19.7643 199.756 19.5883 200.481 19.5883C201.217 19.5883 201.879 19.759 202.465 20.1003C203.052 20.4416 203.516 20.911 203.857 21.5083C204.209 22.095 204.385 22.751 204.385 23.4763C204.385 24.223 204.209 24.895 203.857 25.4923C203.516 26.079 203.052 26.5483 202.465 26.9003C201.879 27.2523 201.217 27.4283 200.481 27.4283ZM200.481 26.3403C201.015 26.3403 201.484 26.2176 201.889 25.9723C202.305 25.727 202.631 25.3856 202.865 24.9483C203.111 24.511 203.233 24.0203 203.233 23.4763C203.233 22.9323 203.111 22.4523 202.865 22.0363C202.631 21.6096 202.305 21.2736 201.889 21.0283C201.484 20.783 201.015 20.6603 200.481 20.6603C199.959 20.6603 199.489 20.783 199.073 21.0283C198.657 21.2736 198.332 21.6096 198.097 22.0363C197.863 22.4523 197.745 22.9323 197.745 23.4763C197.745 24.031 197.863 24.527 198.097 24.9643C198.332 25.391 198.657 25.727 199.073 25.9723C199.489 26.2176 199.959 26.3403 200.481 26.3403ZM209.575 27.4283C208.85 27.4283 208.188 27.2523 207.591 26.9003C207.004 26.5483 206.535 26.0736 206.183 25.4763C205.842 24.879 205.671 24.2123 205.671 23.4763C205.671 22.751 205.842 22.095 206.183 21.5083C206.535 20.9216 207.004 20.4576 207.591 20.1163C208.188 19.7643 208.85 19.5883 209.575 19.5883C210.311 19.5883 210.972 19.759 211.559 20.1003C212.146 20.4416 212.61 20.911 212.951 21.5083C213.303 22.095 213.479 22.751 213.479 23.4763C213.479 24.223 213.303 24.895 212.951 25.4923C212.61 26.079 212.146 26.5483 211.559 26.9003C210.972 27.2523 210.311 27.4283 209.575 27.4283ZM209.575 26.3403C210.108 26.3403 210.578 26.2176 210.983 25.9723C211.399 25.727 211.724 25.3856 211.959 24.9483C212.204 24.511 212.327 24.0203 212.327 23.4763C212.327 22.9323 212.204 22.4523 211.959 22.0363C211.724 21.6096 211.399 21.2736 210.983 21.0283C210.578 20.783 210.108 20.6603 209.575 20.6603C209.052 20.6603 208.583 20.783 208.167 21.0283C207.751 21.2736 207.426 21.6096 207.191 22.0363C206.956 22.4523 206.839 22.9323 206.839 23.4763C206.839 24.031 206.956 24.527 207.191 24.9643C207.426 25.391 207.751 25.727 208.167 25.9723C208.583 26.2176 209.052 26.3403 209.575 26.3403ZM218.365 30.5963C217.607 30.5963 216.93 30.4523 216.333 30.1643C215.746 29.887 215.271 29.4923 214.909 28.9803L215.645 28.2443C215.943 28.6496 216.322 28.9643 216.781 29.1883C217.239 29.4123 217.778 29.5243 218.397 29.5243C219.25 29.5243 219.927 29.295 220.429 28.8363C220.941 28.3776 221.197 27.7536 221.197 26.9643V25.0923L221.421 23.3803L221.197 21.6843V19.7483H222.317V26.9643C222.317 27.6896 222.151 28.3243 221.821 28.8683C221.49 29.4123 221.026 29.8336 220.429 30.1323C219.842 30.4416 219.154 30.5963 218.365 30.5963ZM218.445 27.1883C217.751 27.1883 217.127 27.023 216.573 26.6923C216.018 26.3616 215.581 25.9083 215.261 25.3323C214.941 24.7563 214.781 24.1056 214.781 23.3803C214.781 22.655 214.935 22.0096 215.245 21.4443C215.565 20.8683 216.002 20.415 216.557 20.0843C217.111 19.7536 217.735 19.5883 218.429 19.5883C219.015 19.5883 219.538 19.7003 219.997 19.9243C220.466 20.1483 220.839 20.4683 221.117 20.8843C221.405 21.2896 221.581 21.7696 221.645 22.3243V24.4523C221.581 24.9963 221.405 25.4763 221.117 25.8923C220.829 26.2976 220.455 26.6176 219.997 26.8523C219.538 27.0763 219.021 27.1883 218.445 27.1883ZM218.653 26.1163C219.175 26.1163 219.629 26.0043 220.013 25.7803C220.407 25.5563 220.711 25.2416 220.925 24.8363C221.149 24.4203 221.261 23.935 221.261 23.3803C221.261 22.8363 221.149 22.3616 220.925 21.9563C220.711 21.551 220.407 21.231 220.013 20.9963C219.618 20.7616 219.159 20.6443 218.637 20.6443C218.114 20.6443 217.645 20.7616 217.229 20.9963C216.823 21.231 216.503 21.551 216.269 21.9563C216.045 22.3616 215.933 22.8363 215.933 23.3803C215.933 23.9136 216.05 24.3883 216.285 24.8043C216.519 25.2203 216.839 25.5456 217.245 25.7803C217.65 26.0043 218.119 26.1163 218.653 26.1163ZM224.573 27.2683V15.9403H225.693V27.2683H224.573ZM231.436 27.4283C230.679 27.4283 230.001 27.2576 229.404 26.9163C228.807 26.575 228.332 26.1056 227.98 25.5083C227.639 24.911 227.468 24.239 227.468 23.4923C227.468 22.7563 227.639 22.095 227.98 21.5083C228.321 20.911 228.785 20.4416 229.372 20.1003C229.959 19.759 230.615 19.5883 231.34 19.5883C232.023 19.5883 232.625 19.743 233.148 20.0523C233.681 20.3616 234.097 20.7936 234.396 21.3483C234.705 21.8923 234.86 22.5216 234.86 23.2363C234.86 23.3216 234.855 23.423 234.844 23.5403C234.833 23.647 234.812 23.775 234.78 23.9243H228.268V22.9643H234.172L233.772 23.3163C233.783 22.7616 233.687 22.287 233.484 21.8923C233.292 21.487 233.009 21.1776 232.636 20.9643C232.273 20.7403 231.831 20.6283 231.308 20.6283C230.764 20.6283 230.289 20.7456 229.884 20.9803C229.479 21.215 229.159 21.5456 228.924 21.9723C228.7 22.3883 228.588 22.8843 228.588 23.4603C228.588 24.0363 228.705 24.543 228.94 24.9803C229.185 25.4176 229.521 25.759 229.948 26.0043C230.385 26.2496 230.887 26.3723 231.452 26.3723C231.911 26.3723 232.332 26.2923 232.716 26.1323C233.1 25.9616 233.425 25.711 233.692 25.3803L234.412 26.1163C234.06 26.5323 233.623 26.8576 233.1 27.0923C232.588 27.3163 232.033 27.4283 231.436 27.4283Z" fill="#1E1E1E"/>
</svg>
