<svg width="317" height="42" viewBox="0 0 317 42" fill="none" xmlns="http://www.w3.org/2000/svg">
<rect x="0.630859" y="1.13672" width="315.698" height="39.9123" rx="9.5" fill="#FEFEFE" stroke="#B9B9B9"/>
<path d="M77.5748 27.253C76.7855 27.253 76.0495 27.109 75.3668 26.821C74.6948 26.533 74.1081 26.1277 73.6068 25.605C73.1055 25.0824 72.7161 24.4797 72.4388 23.797C72.1721 23.1037 72.0388 22.3624 72.0388 21.573C72.0388 20.7837 72.1721 20.0477 72.4388 19.365C72.7161 18.6717 73.1001 18.069 73.5908 17.557C74.0921 17.045 74.6788 16.645 75.3508 16.357C76.0228 16.069 76.7481 15.925 77.5268 15.925C78.3695 15.925 79.1215 16.0744 79.7828 16.373C80.4548 16.6717 81.0415 17.0824 81.5428 17.605L80.7428 18.405C80.3588 17.9784 79.8948 17.6477 79.3508 17.413C78.8068 17.1677 78.1988 17.045 77.5268 17.045C76.9081 17.045 76.3375 17.157 75.8148 17.381C75.3028 17.605 74.8495 17.925 74.4548 18.341C74.0708 18.7464 73.7721 19.2264 73.5588 19.781C73.3561 20.325 73.2548 20.9224 73.2548 21.573C73.2548 22.2237 73.3615 22.8264 73.5748 23.381C73.7881 23.9357 74.0868 24.421 74.4708 24.837C74.8548 25.2424 75.3081 25.557 75.8308 25.781C76.3535 26.005 76.9241 26.117 77.5428 26.117C78.2468 26.117 78.8708 25.9944 79.4148 25.749C79.9695 25.5037 80.4388 25.1677 80.8228 24.741L81.6228 25.557C81.1321 26.0797 80.5455 26.4957 79.8628 26.805C79.1801 27.1037 78.4175 27.253 77.5748 27.253ZM86.5157 27.253C85.7903 27.253 85.129 27.077 84.5317 26.725C83.945 26.373 83.4757 25.8984 83.1237 25.301C82.7823 24.7037 82.6117 24.037 82.6117 23.301C82.6117 22.5757 82.7823 21.9197 83.1237 21.333C83.4757 20.7464 83.945 20.2824 84.5317 19.941C85.129 19.589 85.7903 19.413 86.5157 19.413C87.2517 19.413 87.913 19.5837 88.4997 19.925C89.0863 20.2664 89.5503 20.7357 89.8917 21.333C90.2437 21.9197 90.4197 22.5757 90.4197 23.301C90.4197 24.0477 90.2437 24.7197 89.8917 25.317C89.5503 25.9037 89.0863 26.373 88.4997 26.725C87.913 27.077 87.2517 27.253 86.5157 27.253ZM86.5157 26.165C87.049 26.165 87.5183 26.0424 87.9237 25.797C88.3397 25.5517 88.665 25.2104 88.8997 24.773C89.145 24.3357 89.2677 23.845 89.2677 23.301C89.2677 22.757 89.145 22.277 88.8997 21.861C88.665 21.4344 88.3397 21.0984 87.9237 20.853C87.5183 20.6077 87.049 20.485 86.5157 20.485C85.993 20.485 85.5237 20.6077 85.1077 20.853C84.6917 21.0984 84.3663 21.4344 84.1317 21.861C83.897 22.277 83.7797 22.757 83.7797 23.301C83.7797 23.8557 83.897 24.3517 84.1317 24.789C84.3663 25.2157 84.6917 25.5517 85.1077 25.797C85.5237 26.0424 85.993 26.165 86.5157 26.165ZM97.6734 27.093V22.677C97.6734 22.0157 97.4761 21.4824 97.0814 21.077C96.6974 20.661 96.1854 20.453 95.5454 20.453C95.1081 20.453 94.7241 20.549 94.3934 20.741C94.0628 20.933 93.8014 21.1944 93.6094 21.525C93.4174 21.8557 93.3214 22.2344 93.3214 22.661L92.8094 22.373C92.8094 21.8077 92.9428 21.301 93.2094 20.853C93.4761 20.405 93.8334 20.053 94.2814 19.797C94.7401 19.541 95.2628 19.413 95.8494 19.413C96.4254 19.413 96.9374 19.5517 97.3854 19.829C97.8334 20.1064 98.1801 20.4797 98.4254 20.949C98.6814 21.4184 98.8094 21.9304 98.8094 22.485V27.093H97.6734ZM92.2014 27.093V19.573H93.3214V27.093H92.2014ZM101.979 27.093V16.405H103.099V27.093H101.979ZM100.075 20.581V19.573H104.987V20.581H100.075ZM106.53 27.093V19.573H107.666V27.093H106.53ZM107.09 17.941C106.876 17.941 106.695 17.8664 106.546 17.717C106.396 17.557 106.322 17.3704 106.322 17.157C106.322 16.933 106.396 16.7464 106.546 16.597C106.695 16.4477 106.876 16.373 107.09 16.373C107.324 16.373 107.511 16.4477 107.65 16.597C107.799 16.7464 107.874 16.933 107.874 17.157C107.874 17.3704 107.799 17.557 107.65 17.717C107.511 17.8664 107.324 17.941 107.09 17.941ZM115.408 27.093V22.677C115.408 22.0157 115.21 21.4824 114.816 21.077C114.432 20.661 113.92 20.453 113.28 20.453C112.842 20.453 112.458 20.549 112.128 20.741C111.797 20.933 111.536 21.1944 111.344 21.525C111.152 21.8557 111.056 22.2344 111.056 22.661L110.544 22.373C110.544 21.8077 110.677 21.301 110.944 20.853C111.21 20.405 111.568 20.053 112.016 19.797C112.474 19.541 112.997 19.413 113.584 19.413C114.16 19.413 114.672 19.5517 115.12 19.829C115.568 20.1064 115.914 20.4797 116.16 20.949C116.416 21.4184 116.544 21.9304 116.544 22.485V27.093H115.408ZM109.936 27.093V19.573H111.056V27.093H109.936ZM121.615 27.253C121.007 27.253 120.463 27.1144 119.983 26.837C119.503 26.549 119.124 26.1597 118.847 25.669C118.58 25.1784 118.447 24.6024 118.447 23.941V19.573H119.583V23.893C119.583 24.3517 119.663 24.7517 119.823 25.093C119.994 25.4344 120.234 25.701 120.543 25.893C120.852 26.085 121.21 26.181 121.615 26.181C122.244 26.181 122.74 25.973 123.103 25.557C123.476 25.141 123.663 24.5864 123.663 23.893V19.573H124.783V23.941C124.783 24.5917 124.65 25.1677 124.383 25.669C124.116 26.1704 123.743 26.5597 123.263 26.837C122.783 27.1144 122.234 27.253 121.615 27.253ZM130.137 27.253C129.423 27.253 128.783 27.0824 128.217 26.741C127.652 26.389 127.204 25.9197 126.873 25.333C126.553 24.7464 126.393 24.085 126.393 23.349C126.393 22.6024 126.553 21.9357 126.873 21.349C127.204 20.7517 127.652 20.2824 128.217 19.941C128.783 19.589 129.417 19.413 130.121 19.413C130.697 19.413 131.209 19.5304 131.657 19.765C132.116 19.989 132.484 20.309 132.761 20.725C133.049 21.1304 133.225 21.605 133.289 22.149V24.501C133.225 25.045 133.049 25.525 132.761 25.941C132.484 26.357 132.116 26.6824 131.657 26.917C131.209 27.141 130.703 27.253 130.137 27.253ZM130.313 26.181C131.092 26.181 131.716 25.9197 132.185 25.397C132.665 24.8744 132.905 24.1864 132.905 23.333C132.905 22.7677 132.793 22.2717 132.569 21.845C132.356 21.4077 132.052 21.0717 131.657 20.837C131.273 20.5917 130.82 20.469 130.297 20.469C129.764 20.469 129.289 20.5917 128.873 20.837C128.468 21.0824 128.143 21.4237 127.897 21.861C127.663 22.2877 127.545 22.7784 127.545 23.333C127.545 23.8877 127.663 24.3784 127.897 24.805C128.143 25.2317 128.473 25.5677 128.889 25.813C129.305 26.0584 129.78 26.181 130.313 26.181ZM132.841 27.093V25.077L133.065 23.221L132.841 21.413V19.573H133.961V27.093H132.841ZM136.233 27.093V19.573H137.353V27.093H136.233ZM137.353 22.709L136.889 22.501C136.889 21.5517 137.118 20.7997 137.577 20.245C138.046 19.6904 138.686 19.413 139.497 19.413C139.87 19.413 140.211 19.4824 140.521 19.621C140.83 19.749 141.118 19.957 141.385 20.245L140.649 21.029C140.467 20.8264 140.265 20.6824 140.041 20.597C139.827 20.5117 139.582 20.469 139.305 20.469C138.729 20.469 138.259 20.661 137.897 21.045C137.534 21.4184 137.353 21.973 137.353 22.709ZM149.719 27.253C148.983 27.253 148.317 27.0824 147.719 26.741C147.133 26.389 146.663 25.9144 146.311 25.317C145.97 24.7197 145.799 24.053 145.799 23.317C145.799 22.581 145.97 21.9197 146.311 21.333C146.663 20.7357 147.133 20.2664 147.719 19.925C148.317 19.5837 148.983 19.413 149.719 19.413C150.285 19.413 150.813 19.5197 151.303 19.733C151.794 19.9464 152.21 20.245 152.551 20.629L151.815 21.381C151.559 21.093 151.25 20.8744 150.887 20.725C150.525 20.565 150.135 20.485 149.719 20.485C149.186 20.485 148.711 20.6077 148.295 20.853C147.879 21.0984 147.554 21.4344 147.319 21.861C147.085 22.277 146.967 22.7624 146.967 23.317C146.967 23.861 147.085 24.3517 147.319 24.789C147.554 25.2157 147.879 25.5517 148.295 25.797C148.711 26.0424 149.186 26.165 149.719 26.165C150.146 26.165 150.541 26.0904 150.903 25.941C151.266 25.781 151.575 25.557 151.831 25.269L152.583 26.021C152.231 26.4157 151.805 26.7197 151.303 26.933C150.813 27.1464 150.285 27.253 149.719 27.253ZM157.422 27.253C156.697 27.253 156.035 27.077 155.438 26.725C154.851 26.373 154.382 25.8984 154.03 25.301C153.689 24.7037 153.518 24.037 153.518 23.301C153.518 22.5757 153.689 21.9197 154.03 21.333C154.382 20.7464 154.851 20.2824 155.438 19.941C156.035 19.589 156.697 19.413 157.422 19.413C158.158 19.413 158.819 19.5837 159.406 19.925C159.993 20.2664 160.457 20.7357 160.798 21.333C161.15 21.9197 161.326 22.5757 161.326 23.301C161.326 24.0477 161.15 24.7197 160.798 25.317C160.457 25.9037 159.993 26.373 159.406 26.725C158.819 27.077 158.158 27.253 157.422 27.253ZM157.422 26.165C157.955 26.165 158.425 26.0424 158.83 25.797C159.246 25.5517 159.571 25.2104 159.806 24.773C160.051 24.3357 160.174 23.845 160.174 23.301C160.174 22.757 160.051 22.277 159.806 21.861C159.571 21.4344 159.246 21.0984 158.83 20.853C158.425 20.6077 157.955 20.485 157.422 20.485C156.899 20.485 156.43 20.6077 156.014 20.853C155.598 21.0984 155.273 21.4344 155.038 21.861C154.803 22.277 154.686 22.757 154.686 23.301C154.686 23.8557 154.803 24.3517 155.038 24.789C155.273 25.2157 155.598 25.5517 156.014 25.797C156.43 26.0424 156.899 26.165 157.422 26.165ZM163.108 27.093V19.573H164.228V27.093H163.108ZM168.276 27.093V22.485C168.276 21.8664 168.089 21.3757 167.716 21.013C167.342 20.6397 166.873 20.453 166.308 20.453C165.924 20.453 165.572 20.5384 165.252 20.709C164.942 20.869 164.692 21.0984 164.5 21.397C164.318 21.6957 164.228 22.053 164.228 22.469L163.716 22.261C163.716 21.685 163.844 21.1837 164.1 20.757C164.356 20.3304 164.697 19.9997 165.124 19.765C165.561 19.5304 166.052 19.413 166.596 19.413C167.129 19.413 167.604 19.5304 168.02 19.765C168.446 19.9997 168.782 20.3304 169.028 20.757C169.284 21.1837 169.412 21.6904 169.412 22.277V27.093H168.276ZM173.46 27.093V22.485C173.46 21.8664 173.273 21.3757 172.9 21.013C172.526 20.6397 172.052 20.453 171.476 20.453C171.102 20.453 170.756 20.5384 170.436 20.709C170.126 20.869 169.876 21.0984 169.684 21.397C169.502 21.6957 169.412 22.053 169.412 22.469L168.74 22.261C168.772 21.685 168.921 21.1837 169.188 20.757C169.465 20.3304 169.822 19.9997 170.26 19.765C170.708 19.5304 171.198 19.413 171.732 19.413C172.265 19.413 172.745 19.5304 173.172 19.765C173.609 19.9997 173.95 20.3304 174.196 20.757C174.452 21.1837 174.58 21.6904 174.58 22.277V27.093H173.46ZM181.227 27.093V18.293C181.227 17.7704 181.339 17.3064 181.563 16.901C181.798 16.4957 182.118 16.181 182.523 15.957C182.939 15.7224 183.409 15.605 183.931 15.605C184.337 15.605 184.694 15.6797 185.003 15.829C185.313 15.9677 185.595 16.165 185.851 16.421L185.115 17.157C184.945 16.9864 184.763 16.8637 184.571 16.789C184.39 16.7037 184.177 16.661 183.931 16.661C183.43 16.661 183.041 16.8104 182.763 17.109C182.497 17.397 182.363 17.8024 182.363 18.325V27.093H181.227ZM179.339 20.581V19.573H184.875V20.581H179.339ZM189.2 27.253C188.485 27.253 187.845 27.0824 187.28 26.741C186.714 26.389 186.266 25.9197 185.936 25.333C185.616 24.7464 185.456 24.085 185.456 23.349C185.456 22.6024 185.616 21.9357 185.936 21.349C186.266 20.7517 186.714 20.2824 187.28 19.941C187.845 19.589 188.48 19.413 189.184 19.413C189.76 19.413 190.272 19.5304 190.72 19.765C191.178 19.989 191.546 20.309 191.824 20.725C192.112 21.1304 192.288 21.605 192.352 22.149V24.501C192.288 25.045 192.112 25.525 191.824 25.941C191.546 26.357 191.178 26.6824 190.72 26.917C190.272 27.141 189.765 27.253 189.2 27.253ZM189.376 26.181C190.154 26.181 190.778 25.9197 191.248 25.397C191.728 24.8744 191.968 24.1864 191.968 23.333C191.968 22.7677 191.856 22.2717 191.632 21.845C191.418 21.4077 191.114 21.0717 190.72 20.837C190.336 20.5917 189.882 20.469 189.36 20.469C188.826 20.469 188.352 20.5917 187.936 20.837C187.53 21.0824 187.205 21.4237 186.96 21.861C186.725 22.2877 186.608 22.7784 186.608 23.333C186.608 23.8877 186.725 24.3784 186.96 24.805C187.205 25.2317 187.536 25.5677 187.952 25.813C188.368 26.0584 188.842 26.181 189.376 26.181ZM191.904 27.093V25.077L192.128 23.221L191.904 21.413V19.573H193.024V27.093H191.904ZM198.719 27.253C197.983 27.253 197.317 27.0824 196.719 26.741C196.133 26.389 195.663 25.9144 195.311 25.317C194.97 24.7197 194.799 24.053 194.799 23.317C194.799 22.581 194.97 21.9197 195.311 21.333C195.663 20.7357 196.133 20.2664 196.719 19.925C197.317 19.5837 197.983 19.413 198.719 19.413C199.285 19.413 199.813 19.5197 200.303 19.733C200.794 19.9464 201.21 20.245 201.551 20.629L200.815 21.381C200.559 21.093 200.25 20.8744 199.887 20.725C199.525 20.565 199.135 20.485 198.719 20.485C198.186 20.485 197.711 20.6077 197.295 20.853C196.879 21.0984 196.554 21.4344 196.319 21.861C196.085 22.277 195.967 22.7624 195.967 23.317C195.967 23.861 196.085 24.3517 196.319 24.789C196.554 25.2157 196.879 25.5517 197.295 25.797C197.711 26.0424 198.186 26.165 198.719 26.165C199.146 26.165 199.541 26.0904 199.903 25.941C200.266 25.781 200.575 25.557 200.831 25.269L201.583 26.021C201.231 26.4157 200.805 26.7197 200.303 26.933C199.813 27.1464 199.285 27.253 198.719 27.253ZM206.486 27.253C205.729 27.253 205.051 27.0824 204.454 26.741C203.857 26.3997 203.382 25.9304 203.03 25.333C202.689 24.7357 202.518 24.0637 202.518 23.317C202.518 22.581 202.689 21.9197 203.03 21.333C203.371 20.7357 203.835 20.2664 204.422 19.925C205.009 19.5837 205.665 19.413 206.39 19.413C207.073 19.413 207.675 19.5677 208.198 19.877C208.731 20.1864 209.147 20.6184 209.446 21.173C209.755 21.717 209.91 22.3464 209.91 23.061C209.91 23.1464 209.905 23.2477 209.894 23.365C209.883 23.4717 209.862 23.5997 209.83 23.749H203.318V22.789H209.222L208.822 23.141C208.833 22.5864 208.737 22.1117 208.534 21.717C208.342 21.3117 208.059 21.0024 207.686 20.789C207.323 20.565 206.881 20.453 206.358 20.453C205.814 20.453 205.339 20.5704 204.934 20.805C204.529 21.0397 204.209 21.3704 203.974 21.797C203.75 22.213 203.638 22.709 203.638 23.285C203.638 23.861 203.755 24.3677 203.99 24.805C204.235 25.2424 204.571 25.5837 204.998 25.829C205.435 26.0744 205.937 26.197 206.502 26.197C206.961 26.197 207.382 26.117 207.766 25.957C208.15 25.7864 208.475 25.5357 208.742 25.205L209.462 25.941C209.11 26.357 208.673 26.6824 208.15 26.917C207.638 27.141 207.083 27.253 206.486 27.253ZM215.511 27.253C214.935 27.253 214.418 27.1357 213.959 26.901C213.501 26.6664 213.122 26.3464 212.823 25.941C212.535 25.525 212.359 25.045 212.295 24.501V22.149C212.359 21.5944 212.541 21.1144 212.839 20.709C213.138 20.293 213.517 19.973 213.975 19.749C214.445 19.525 214.957 19.413 215.511 19.413C216.205 19.413 216.829 19.589 217.383 19.941C217.938 20.2824 218.375 20.7517 218.695 21.349C219.026 21.9357 219.191 22.6024 219.191 23.349C219.191 24.085 219.031 24.7464 218.711 25.333C218.391 25.9197 217.949 26.389 217.383 26.741C216.829 27.0824 216.205 27.253 215.511 27.253ZM215.319 26.181C215.853 26.181 216.322 26.0637 216.727 25.829C217.133 25.5837 217.447 25.2477 217.671 24.821C217.906 24.3837 218.023 23.8877 218.023 23.333C218.023 22.7677 217.906 22.2717 217.671 21.845C217.447 21.4184 217.133 21.0824 216.727 20.837C216.322 20.5917 215.858 20.469 215.335 20.469C214.813 20.469 214.349 20.5917 213.943 20.837C213.549 21.0824 213.239 21.4184 213.015 21.845C212.791 22.2717 212.679 22.7677 212.679 23.333C212.679 23.8877 212.791 24.3837 213.015 24.821C213.239 25.2477 213.549 25.5837 213.943 25.829C214.338 26.0637 214.797 26.181 215.319 26.181ZM211.623 27.093V15.765H212.743V21.413L212.519 23.221L212.743 25.077V27.093H211.623ZM224.391 27.253C223.665 27.253 223.004 27.077 222.407 26.725C221.82 26.373 221.351 25.8984 220.999 25.301C220.657 24.7037 220.487 24.037 220.487 23.301C220.487 22.5757 220.657 21.9197 220.999 21.333C221.351 20.7464 221.82 20.2824 222.407 19.941C223.004 19.589 223.665 19.413 224.391 19.413C225.127 19.413 225.788 19.5837 226.375 19.925C226.961 20.2664 227.425 20.7357 227.767 21.333C228.119 21.9197 228.295 22.5757 228.295 23.301C228.295 24.0477 228.119 24.7197 227.767 25.317C227.425 25.9037 226.961 26.373 226.375 26.725C225.788 27.077 225.127 27.253 224.391 27.253ZM224.391 26.165C224.924 26.165 225.393 26.0424 225.799 25.797C226.215 25.5517 226.54 25.2104 226.775 24.773C227.02 24.3357 227.143 23.845 227.143 23.301C227.143 22.757 227.02 22.277 226.775 21.861C226.54 21.4344 226.215 21.0984 225.799 20.853C225.393 20.6077 224.924 20.485 224.391 20.485C223.868 20.485 223.399 20.6077 222.983 20.853C222.567 21.0984 222.241 21.4344 222.007 21.861C221.772 22.277 221.655 22.757 221.655 23.301C221.655 23.8557 221.772 24.3517 222.007 24.789C222.241 25.2157 222.567 25.5517 222.983 25.797C223.399 26.0424 223.868 26.165 224.391 26.165ZM233.484 27.253C232.759 27.253 232.098 27.077 231.5 26.725C230.914 26.373 230.444 25.8984 230.092 25.301C229.751 24.7037 229.58 24.037 229.58 23.301C229.58 22.5757 229.751 21.9197 230.092 21.333C230.444 20.7464 230.914 20.2824 231.5 19.941C232.098 19.589 232.759 19.413 233.484 19.413C234.22 19.413 234.882 19.5837 235.468 19.925C236.055 20.2664 236.519 20.7357 236.86 21.333C237.212 21.9197 237.388 22.5757 237.388 23.301C237.388 24.0477 237.212 24.7197 236.86 25.317C236.519 25.9037 236.055 26.373 235.468 26.725C234.882 27.077 234.22 27.253 233.484 27.253ZM233.484 26.165C234.018 26.165 234.487 26.0424 234.892 25.797C235.308 25.5517 235.634 25.2104 235.868 24.773C236.114 24.3357 236.236 23.845 236.236 23.301C236.236 22.757 236.114 22.277 235.868 21.861C235.634 21.4344 235.308 21.0984 234.892 20.853C234.487 20.6077 234.018 20.485 233.484 20.485C232.962 20.485 232.492 20.6077 232.076 20.853C231.66 21.0984 231.335 21.4344 231.1 21.861C230.866 22.277 230.748 22.757 230.748 23.301C230.748 23.8557 230.866 24.3517 231.1 24.789C231.335 25.2157 231.66 25.5517 232.076 25.797C232.492 26.0424 232.962 26.165 233.484 26.165ZM244.018 27.093L240.178 23.237L243.954 19.573H245.346L241.234 23.525L241.266 22.885L245.506 27.093H244.018ZM239.17 27.093V15.765H240.29V27.093H239.17Z" fill="#1E1E1E"/>
<path fill-rule="evenodd" clip-rule="evenodd" d="M18.4366 8.74023H38.9954C40.1368 8.74023 41.0697 9.67307 41.0697 10.8123V31.3712C41.0697 32.5126 40.1368 33.4456 38.9954 33.4456H18.4366C17.2951 33.4456 16.3623 32.5126 16.3623 31.3712V10.8123C16.3623 9.67314 17.2951 8.74023 18.4366 8.74023Z" fill="#425F9C"/>
<path fill-rule="evenodd" clip-rule="evenodd" d="M32.9019 18.5281V16.8225C32.9019 15.9928 33.4552 15.7996 33.8458 15.7996C34.2322 15.7996 36.2362 15.7996 36.2362 15.7996V12.147L32.9436 12.1317C29.289 12.1317 28.457 14.8579 28.457 16.6007V18.528H26.3431V22.7886H28.4745C28.4745 27.6199 28.4745 33.4455 28.4745 33.4455H32.7373C32.7373 33.4455 32.7373 27.5607 32.7373 22.7886H36.2954L36.2889 18.528L32.9019 18.5281Z" fill="#FEFEFE"/>
</svg>
