<svg width="260" height="321" viewBox="0 0 260 321" fill="none" xmlns="http://www.w3.org/2000/svg">
<path d="M1.16309 258.067H0.663086V258.567V318.885V319.385H1.16309H44.7882C52.211 319.385 58.7889 318.781 64.4286 317.48C70.134 316.27 74.6605 314.707 78.0754 312.781L78.0802 312.778C81.4032 310.855 84.12 308.49 86.312 305.684L86.3134 305.682C88.4048 302.981 89.818 300.343 90.5287 297.684C91.3186 295.135 91.6668 292.42 91.6668 289.544V287.048C91.6668 284.606 91.4054 282.325 90.7903 280.125C90.2594 277.918 89.2921 275.727 88.0792 273.474L88.0757 273.468L88.072 273.461C86.7441 271.16 84.8898 269.132 82.5203 267.376C80.1536 265.536 77.2755 263.969 73.9017 262.498C70.5742 261.01 66.3953 259.969 61.3863 259.192C56.4484 258.412 50.8282 258.067 44.7022 258.067H1.16309ZM64.0125 277.924L22.228 303.452V273.265H43.1533C51.9408 273.265 58.4377 274.554 62.7223 277.078C63.1769 277.346 63.607 277.628 64.0125 277.924ZM98.8887 258.067H98.3887V258.567V318.885V319.385H98.8887H169.102H169.602V318.885V304.86V304.36H169.102H119.695V295.464H167.037H167.537V294.964V281.197V280.697H167.037H119.695V272.748H168.155H168.655V272.248V258.567V258.067H168.155H98.8887ZM212.544 257.207C206.764 257.207 201.658 257.551 197.317 258.332C192.905 259.025 189.421 259.98 186.79 261.12C184.162 262.259 182.036 263.67 180.431 265.365C178.761 267.122 177.679 268.821 177.133 270.549C176.599 272.238 176.335 274.097 176.335 276.034V276.809C176.335 282.603 179.119 287.042 184.596 290.067C190.035 293.072 198.134 294.689 208.832 294.948L208.835 294.948L213.649 295.034L213.654 295.034L220.103 295.206L220.107 295.206C224.993 295.292 228.657 295.634 231.196 296.142C232.469 296.439 233.516 296.754 234.323 297.075C235.134 297.397 235.656 297.707 235.929 297.975C236.511 298.636 236.825 299.537 236.825 300.729C236.825 301.612 236.666 302.287 236.299 302.874C235.941 303.447 235.264 303.998 233.992 304.677L233.986 304.68L233.98 304.684C232.872 305.317 230.987 305.74 228.314 306.085C228.113 306.11 227.917 306.134 227.726 306.158C225.304 306.464 223.57 306.683 219.772 306.683H215.04C208.781 306.683 204.587 305.886 201.918 304.361C199.299 302.865 198.105 300.641 197.899 297.598L197.868 297.132H197.4H175.975H175.475V297.632V298.492C175.475 300.413 175.649 302.266 176.094 303.954C176.547 305.678 177.622 307.631 179.189 309.72C180.786 311.85 182.994 313.7 185.624 315.19L185.63 315.193C188.361 316.691 192.202 317.908 197.123 318.944C201.986 319.986 207.788 320.504 214.351 320.504H220.374C226.754 320.504 232.379 320.159 237.152 319.292C241.894 318.516 245.645 317.561 248.459 316.243C251.268 315.013 253.477 313.426 255.163 311.562L255.163 311.563L255.171 311.554C256.83 309.632 257.997 307.764 258.541 305.95C259.074 304.173 259.337 302.143 259.337 299.869V298.75C259.337 295.621 258.653 292.903 257.241 290.595C255.83 288.288 253.711 286.423 250.894 284.97C245.364 282.074 236.489 280.525 224.167 280.353L224.16 280.853L224.167 280.353L217.974 280.267L217.972 280.267L213.157 280.181C213.156 280.181 213.156 280.181 213.156 280.181C208.952 280.095 205.726 279.838 203.454 279.334C202.309 279.037 201.389 278.743 200.688 278.455C199.975 278.161 199.533 277.89 199.303 277.66C198.727 277.085 198.502 276.448 198.502 275.518C198.502 274.47 198.744 273.763 199.216 273.29L199.23 273.277L199.243 273.262C199.411 273.066 199.84 272.801 200.632 272.501C201.396 272.212 202.423 271.917 203.7 271.619C206.321 271.112 209.383 270.855 214.351 270.855H217.363C220.604 270.855 222.473 271.025 224.855 271.365C227.252 271.794 229.103 272.216 230.265 272.63C231.502 273.126 232.384 273.693 233.1 274.409C233.482 274.791 233.792 275.122 234.024 275.405C234.262 275.695 234.395 275.905 234.452 276.048C234.612 276.449 234.777 277.023 234.952 277.635L235.055 277.997H235.432H256.772H257.272V277.497V276.723C257.272 274.685 256.917 272.817 256.206 271.037C255.57 269.313 254.314 267.535 252.565 265.786C250.791 264.012 248.498 262.517 245.7 261.293C242.893 260.065 239.233 259.11 234.569 258.332C229.972 257.552 224.607 257.207 218.653 257.207H212.544Z" stroke="white"/>
<path d="M96.1309 52.9305L90.9628 58.2336L74.3889 41.4936L106.157 9.72543C111.803 4.07964 117.4 1.33771 122.954 1.36916C128.509 1.40063 134.14 4.20752 139.851 9.91788L139.851 9.91827L231.111 100.976L231.111 100.976C236.966 106.831 239.849 112.602 239.891 118.289C239.933 123.974 237.137 129.696 231.373 135.456C231.372 135.457 231.371 135.457 231.371 135.458L199.644 166.234L182.831 148.894L187.381 144.345L187.734 143.991L187.381 143.638L96.8429 52.9262L96.4847 52.5674L96.1309 52.9305Z" stroke="white"/>
<path d="M59.4169 53.9252L77.2167 71.3827L72.6758 75.9236L72.3226 76.2768L72.6754 76.6303L163.599 167.736L163.957 168.095L164.311 167.732L169.479 162.429L186.13 179.246L154.361 211.014C148.716 216.66 143.114 219.397 137.549 219.354C131.981 219.311 126.331 216.484 120.591 210.745L120.591 210.744L28.9461 119.292L28.9457 119.292C23.0665 113.413 20.1635 107.625 20.1087 101.925C20.0539 96.2272 22.844 90.4982 28.6093 84.7328L59.4169 53.9252Z" stroke="white"/>
</svg>
